<svg t="1577886529146" class="icon" viewBox="0 0 1024 1024" version="1.1" xmlns="http://www.w3.org/2000/svg" p-id="4047" width="64" height="64"><path d="M123.899482 19.094588m60.235294 0l512 0q60.235294 0 60.235295 60.235294l0 873.411765q0 60.235294-60.235295 60.235294l-512 0q-60.235294 0-60.235294-60.235294l0-873.411765q0-60.235294 60.235294-60.235294Z" fill="#7D7D7D" p-id="4048"></path><path d="M184.134776 109.447529h77.673412l47.405177 54.512942a30.117647 30.117647 0 0 0 22.708706 10.36047h220.581647a30.117647 30.117647 0 0 0 23.612235-11.444706l42.345412-53.428706H696.134776v843.294118H184.134776v-843.294118z" fill="#D1D1D1" p-id="4049"></path><path d="M403.602071 674.966588H327.795953a20.540235 20.540235 0 0 1-16.323765-9.276235A41.562353 41.562353 0 0 1 304.605365 646.896941c0.783059-6.866824 3.072-12.498824 6.866823-16.896 3.794824-4.397176 9.246118-6.896941 16.323765-7.439059h75.806118v-25.991529l-75.806118-0.391529c-7.077647-0.572235-12.528941-3.192471-16.323765-7.830589a33.219765 33.219765 0 0 1-6.866823-17.769411c0.783059-6.866824 3.072-12.498824 6.866823-16.896 3.794824-4.427294 9.246118-6.896941 16.323765-7.439059h56.560941L331.711247 448.873412a62.644706 62.644706 0 0 1-7.469176-12.589177 35.538824 35.538824 0 0 1-3.132236-16.685176c1.295059-7.710118 3.915294-13.974588 7.830589-18.793412 3.945412-4.818824 11.294118-7.890824 22.016-9.276235 6.294588 0.542118 11.926588 2.831059 16.896 6.806588 4.969412 3.975529 9.035294 8.312471 12.167529 13.010824l59.723294 114.688 65.596235-115.531295c3.162353-4.668235 7.228235-8.794353 12.197647-12.348235 4.969412-3.614118 10.601412-5.812706 16.865883-6.625882 3.915294 0.301176 7.529412 0.813176 10.842353 1.65647a23.190588 23.190588 0 0 1 8.613647 4.126118 22.287059 22.287059 0 0 1 6.294588 8.252235 48.188235 48.188235 0 0 1 3.734588 14.034824c0 7.951059-2.620235 15.510588-7.860706 22.678588l-60.897882 103.966118h57.735529c6.836706 0.542118 12.197647 3.011765 16.112942 7.439059 3.915294 4.397176 6.174118 10.029176 6.686117 16.896a31.472941 31.472941 0 0 1-6.866823 18.160941 22.497882 22.497882 0 0 1-16.323765 8.252235l-74.992941 0.421647v25.148235h75.38447c6.836706 0.542118 12.197647 3.312941 16.112942 8.252236 3.915294 4.969412 6.174118 10.842353 6.686117 17.769411a31.201882 31.201882 0 0 1-6.686117 17.92 22.136471 22.136471 0 0 1-16.112942 8.041412l-75.414588-0.391529v43.730823C476.396424 741.255529 464.228894 752.941176 440.917835 752.941176c-11.535059 0-20.48-2.891294-26.895059-8.673882-6.415059-5.752471-9.908706-14.576941-10.420705-26.383059V674.936471z" fill="#FFFFFF" p-id="4050"></path></svg>