<svg t="1577877598793" class="icon" viewBox="0 0 1024 1024" version="1.1" xmlns="http://www.w3.org/2000/svg" p-id="2487" width="64" height="64"><path d="M357.809231 149.070769c51.121231-42.062769 110.749538-75.736615 185.698461-94.208 44.307692-11.815385 90.308923-16.856615 134.616616-15.163077 3.387077 3.347692 13.627077 40.369231 28.947692 47.104 15.36 6.734769 69.868308-10.082462 97.122462 26.939077 11.933538 23.552-5.12 31.980308 10.24 48.797539 102.242462 57.186462 120.950154-13.469538 161.870769 52.14523 17.014154 55.532308-69.868308 45.449846-92.002462 109.371077-6.813538-10.082462-30.72-23.552-37.494154-28.59323-71.561846-43.756308-155.057231-60.573538-243.672615-37.021539-168.644923 43.716923-269.193846 212.007385-223.192615 376.910769 44.307692 164.903385 216.379077 260.804923 385.063384 217.048616 49.427692-11.815385 110.749538-47.104 146.510769-77.390769 30.72-21.897846 56.241231-58.919385 81.801847-72.349539 0 0-18.747077 21.858462-22.134154 37.021539 0 0 8.507077 3.347692 23.867077-11.815385 15.320615-15.123692 27.254154-43.716923 27.254154-43.716923-1.732923 10.082462 5.12 35.328-23.867077 72.349538a356.785231 356.785231 0 0 1-34.067693 40.369231c5.12-1.693538 15.36-10.082462 30.680616-18.510769 11.894154-10.082462 28.947692-38.675692 28.947692-38.675692-1.693538 13.430154-20.48 70.656-44.307692 97.555692a390.222769 390.222769 0 0 1-83.495385 84.164923c-23.827692 18.510769-47.655385 33.634462-93.696 47.104-257.260308 67.308308-521.373538-82.471385-591.241846-333.193846-17.014154-58.88-17.014154-126.148923-11.894154-190.109539 0 0-46.001231 28.593231-102.242461 28.593231C39.187692 473.796923 0 426.692923 0 376.241231c0-48.836923 57.895385-114.451692 57.895385-112.758154 0 3.387077-3.387077 55.532308 49.427692 57.225846 107.362462-10.121846 160.177231-92.553846 243.672615-161.555692l6.813539-10.082462z m233.432615 284.356923h233.393231c27.293538 0 47.734154 20.204308 47.734154 47.104v143.044923c0 26.899692-20.48 47.104-47.734154 47.104h-233.393231c-27.293538 0-47.734154-20.204308-47.734154-47.104V480.492308c0-25.206154 23.867077-47.104 47.734154-47.104z" fill="#E2301F" p-id="2488"></path></svg>