<svg t="1577898321670" class="icon" viewBox="0 0 1024 1024" version="1.1" xmlns="http://www.w3.org/2000/svg" p-id="3946" width="64" height="64"><path d="M845.2 106.7c-0.7-23.9-20.4-42.9-44.2-42.9H223.1c-23.9 0-43.6 19-44.2 42.9l-19.5 663.7c-0.7 25 19.2 45.6 44.2 45.6h616.8c25 0 44.9-20.6 44.2-45.6l-19.4-663.7z m-542 88.3c0.4-15 12.6-27 27.7-27h362.4c15 0 27.2 11.9 27.7 27l12.4 298.9c0.4 10.2-7.7 18.8-18.1 18.8H308.9c-10.4 0-18.6-8.6-18.1-18.8L303.2 195z m-1.4 510.4c-18.4 0-33.2-14.8-33.2-33.2 0-18.4 14.8-33.2 33.2-33.2 18.4 0 33.2 14.8 33.2 33.2 0 18.4-14.8 33.2-33.2 33.2z m442.5 0c-18.4 0-33.2-14.8-33.2-33.2 0-18.4 14.8-33.2 33.2-33.2s33.2 14.8 33.2 33.2c0 18.4-14.8 33.2-33.2 33.2z" fill="#DD4238" p-id="3947"></path><path d="M290.8 959.8c-30.5 0-55.3-24.8-55.3-55.3 0-30.5 24.8-55.3 55.3-55.3 30.5 0 55.3 24.8 55.3 55.3 0 30.6-24.8 55.3-55.3 55.3zM733.2 959.8c-30.5 0-55.3-24.8-55.3-55.3 0-30.5 24.8-55.3 55.3-55.3 30.5 0 55.3 24.8 55.3 55.3 0 30.6-24.7 55.3-55.3 55.3z" fill="#3E6493" p-id="3948"></path></svg>