<svg t="1577901566326" class="icon" viewBox="0 0 1024 1024" version="1.1" xmlns="http://www.w3.org/2000/svg" p-id="3175" width="64" height="64"><path d="M669.17999 542.092147m-329.604741 0a329.604741 329.604741 0 1 0 659.209483 0 329.604741 329.604741 0 1 0-659.209483 0Z" fill="#E9EAEB" p-id="3176"></path><path d="M684.930502 777.555069h188.355888v156.927115H684.930502z" fill="#A3D4FF" p-id="3177"></path><path d="M888.675651 950.160446H669.17999v-188.355888H888.675651z m-187.850138-31.356523h156.927115v-125.570592H700.825513z" fill="#2A5082" p-id="3178"></path><path d="M496.574614 557.770409H684.930502v376.711775H496.574614z" fill="#E9EAEB" p-id="3179"></path><path d="M700.825513 950.160446H480.824102V541.875397H700.825513z m-188.572638-31.356523h156.927115V573.52092H512.252875z" fill="#2A5082" p-id="3180"></path><path d="M308.218726 667.662739h188.355888v266.819445H308.218726z" fill="#A3D4FF" p-id="3181"></path><path d="M512.252875 950.160446H292.540464V651.984478H512.252875z m-188.355888-31.428773h156.927115V683.341H323.896987z" fill="#2A5082" p-id="3182"></path><path d="M119.862838 479.306851h188.355888v455.175333H119.862838z" fill="#FFFFFF" p-id="3183"></path><path d="M323.896987 950.160446H104.184576V463.62859h219.712411z m-188.355888-31.428773h156.999365V494.985113H135.541099zM983.10647 918.803923h31.356523v31.428773h-31.356523zM9.970507 918.803923h31.356523v31.428773H9.970507z" fill="#2A5082" p-id="3184"></path><path d="M72.755803 918.803923h878.921894v31.428773H72.755803zM888.964651 620.555705h-156.999365v-31.356523h125.570592V463.62859h31.428773v156.927115z" fill="#2A5082" p-id="3185"></path><path d="M862.159881 615.931701L575.038171 328.882241 418.111056 485.809356 265.735695 333.433994l22.180766-22.180766L418.111056 441.447823l156.927115-156.999365 309.302477 309.302477-22.180767 22.180766zM187.207112 254.970437l22.173541-22.180766 47.107035 47.107034-22.180766 22.173541zM124.407366 192.170691l22.173541-22.166316 31.370973 31.363747-22.180766 22.173542zM61.67987 129.43597l22.166316-22.166316 31.370973 31.363748-22.173541 22.180766z" fill="#2A5082" p-id="3186"></path><path d="M344.206477 223.556114l22.173541-22.166316 94.156269 94.156268-22.173541 22.166317zM281.457306 160.785268l22.166316-22.173541 31.370973 31.370972-22.173541 22.173542zM218.67201 97.999972l22.173541-22.173541 31.370973 31.370973-22.180766 22.173541z" fill="#BCC0C4" p-id="3187"></path></svg>