<svg t="1577877696399" class="icon" viewBox="0 0 1024 1024" version="1.1" xmlns="http://www.w3.org/2000/svg" p-id="2963" width="64" height="64"><path d="M511.00713 382.418438l391.201065 391.870593c40.092891 39.462747 80.343318 78.571038 120.593744 118.033785v37.729852c-22.685172 128.27362-146.665938 85.423851-278.681036 92.394816-145.051195-145.287499-290.259927-290.574998-435.508042-435.901882l202.433653-204.954228v0.866448z m376.195769 128.982532c45.212808 45.094656 90.189312 90.346848 135.40212 135.283968v102.477114c-61.714695-61.990383-124.453374-123.665695-186.561909-185.498542l51.199173-52.105004v-0.157536z m-759.204967 38.950755L600.723834 1022.4081H196.250368c-82.54882 0-122.287255 12.130266-171.595997-34.14591a106.533664 106.533664 0 0 1-24.181763-78.059047v-232.641165l127.367788-127.249637h0.157536zM732.030021 0c182.30844 3.938398 208.380634-11.421354 257.492456 25.599586 49.308742 55.176955 29.853056 63.565742 34.106526 290.417463v186.522525l-102.319578-102.516497c-61.714695-31.428415-65.968165 12.642257-155.330414 91.055759l-218.817388-217.793404a52.105004 52.105004 0 0 0-64.274654-5.119918 166540.866648 166540.866648 0 0 1-245.047119 245.95295l-71.127466-71.206234c-12.760409-6.143901-23.709155-20.164597-48.245375-14.690224-31.704103 6.813428-89.204713 84.202947-117.994401 105.90352v-323.342469c0-34.185294-2.402423-126.422573 8.152483-150.328649C24.851291 22.724556 55.373875 9.570307 90.346848 0h641.683173z" fill="#D61518" p-id="2964"></path></svg>