<svg t="1577897624967" class="icon" viewBox="0 0 1024 1024" version="1.1" xmlns="http://www.w3.org/2000/svg" p-id="9036" width="64" height="64"><path d="M1.3 817.7C1.3 874.2 47.1 920 103.6 920h818.2c56.5 0 102.3-45.8 102.3-102.3v-86.3H1.3v86.3zM921.8 104.2H103.6C47.1 104.2 1.3 150 1.3 206.5v473.8h1022.8V206.5c0-56.5-45.8-102.3-102.3-102.3z" fill="#2868F0" p-id="9037"></path><path d="M0.1 680.3h1.2v51.1H0.1zM925.9 257.6h-88.3l-76.7 204.6h88.3l76.7-204.6z" fill="#ffffff" p-id="9038"></path><path d="M178.2 411.1h-51.1v51.1h51.1v-51.1zM280.5 411.1h-51.1v51.1h51.1v-51.1zM382.8 411.1h-51.2v51.1h51.2v-51.1z" fill="#ffffff" p-id="9039"></path><path d="M667.2 257.6H616l-76.7 204.6h51.2l76.7-204.6zM767.6 257.6h-51.1l-76.7 204.6h51.1l76.7-204.6z" fill="#ffffff" p-id="9040"></path></svg>